<mxfile host="app.diagrams.net">
  <diagram name="Academy">
    <mxGraphModel dx="1400" dy="900" grid="1" gridSize="10" guides="1" tooltips="1" connect="1" arrows="1" fold="1" page="1" pageScale="1" pageWidth="1400" pageHeight="900">
      <root>
        <mxCell id="0"/>
        <mxCell id="1" parent="0"/>
        
        <!-- College Class -->
        <mxCell id="2" value="College" style="swimlane;fontStyle=1;align=center;verticalAlign=top;childLayout=stackLayout;horizontal=1;startSize=26;horizontalStack=0;resizeParent=1;resizeParentMax=0;resizeLast=0;collapsible=1;marginBottom=0;" vertex="1" parent="1">
          <mxGeometry x="40" y="40" width="200" height="86" as="geometry"/>
        </mxCell>
        <mxCell id="3" value="- name: String" style="text;strokeColor=none;fillColor=none;align=left;verticalAlign=top;spacingLeft=4;spacingRight=4;overflow=hidden;rotatable=0;points=[[0,0.5],[1,0.5]];portConstraint=eastwest;" vertex="1" parent="2">
          <mxGeometry y="26" width="200" height="26" as="geometry"/>
        </mxCell>
        <mxCell id="4" value="- website: String" style="text;strokeColor=none;fillColor=none;align=left;verticalAlign=top;spacingLeft=4;spacingRight=4;overflow=hidden;rotatable=0;points=[[0,0.5],[1,0.5]];portConstraint=eastwest;" vertex="1" parent="2">
          <mxGeometry y="52" width="200" height="26" as="geometry"/>
        </mxCell>
        <mxCell id="5" value="" style="line;strokeWidth=1;fillColor=none;align=left;verticalAlign=middle;spacingTop=-1;spacingLeft=3;spacingRight=3;rotatable=0;labelPosition=right;points=[];portConstraint=eastwest;" vertex="1" parent="2">
          <mxGeometry y="78" width="200" height="8" as="geometry"/>
        </mxCell>
        
        <!-- Department Class -->
        <mxCell id="6" value="Department" style="swimlane;fontStyle=1;align=center;verticalAlign=top;childLayout=stackLayout;horizontal=1;startSize=26;horizontalStack=0;resizeParent=1;resizeParentMax=0;resizeLast=0;collapsible=1;marginBottom=0;" vertex="1" parent="1">
          <mxGeometry x="340" y="40" width="200" height="60" as="geometry"/>
        </mxCell>
        <mxCell id="7" value="" style="line;strokeWidth=1;fillColor=none;align=left;verticalAlign=middle;spacingTop=-1;spacingLeft=3;spacingRight=3;rotatable=0;labelPosition=right;points=[];portConstraint=eastwest;" vertex="1" parent="6">
          <mxGeometry y="26" width="200" height="8" as="geometry"/>
        </mxCell>
        <mxCell id="8" value="" style="text;strokeColor=none;fillColor=none;align=left;verticalAlign=top;spacingLeft=4;spacingRight=4;overflow=hidden;rotatable=0;points=[[0,0.5],[1,0.5]];portConstraint=eastwest;" vertex="1" parent="6">
          <mxGeometry y="34" width="200" height="26" as="geometry"/>
        </mxCell>
        
        <!-- Teacher Class -->
        <mxCell id="9" value="Teacher" style="swimlane;fontStyle=1;align=center;verticalAlign=top;childLayout=stackLayout;horizontal=1;startSize=26;horizontalStack=0;resizeParent=1;resizeParentMax=0;resizeLast=0;collapsible=1;marginBottom=0;" vertex="1" parent="1">
          <mxGeometry x="640" y="40" width="200" height="164" as="geometry"/>
        </mxCell>
        <mxCell id="10" value="- lastName: String" style="text;strokeColor=none;fillColor=none;align=left;verticalAlign=top;spacingLeft=4;spacingRight=4;overflow=hidden;rotatable=0;points=[[0,0.5],[1,0.5]];portConstraint=eastwest;" vertex="1" parent="9">
          <mxGeometry y="26" width="200" height="26" as="geometry"/>
        </mxCell>
        <mxCell id="11" value="- firstName: String" style="text;strokeColor=none;fillColor=none;align=left;verticalAlign=top;spacingLeft=4;spacingRight=4;overflow=hidden;rotatable=0;points=[[0,0.5],[1,0.5]];portConstraint=eastwest;" vertex="1" parent="9">
          <mxGeometry y="52" width="200" height="26" as="geometry"/>
        </mxCell>
        <mxCell id="12" value="- phoneNumber: String" style="text;strokeColor=none;fillColor=none;align=left;verticalAlign=top;spacingLeft=4;spacingRight=4;overflow=hidden;rotatable=0;points=[[0,0.5],[1,0.5]];portConstraint=eastwest;" vertex="1" parent="9">
          <mxGeometry y="78" width="200" height="26" as="geometry"/>
        </mxCell>
        <mxCell id="13" value="- email: String" style="text;strokeColor=none;fillColor=none;align=left;verticalAlign=top;spacingLeft=4;spacingRight=4;overflow=hidden;rotatable=0;points=[[0,0.5],[1,0.5]];portConstraint=eastwest;" vertex="1" parent="9">
          <mxGeometry y="104" width="200" height="26" as="geometry"/>
        </mxCell>
        <mxCell id="14" value="- startDate: Date" style="text;strokeColor=none;fillColor=none;align=left;verticalAlign=top;spacingLeft=4;spacingRight=4;overflow=hidden;rotatable=0;points=[[0,0.5],[1,0.5]];portConstraint=eastwest;" vertex="1" parent="9">
          <mxGeometry y="130" width="200" height="26" as="geometry"/>
        </mxCell>
        <mxCell id="15" value="" style="line;strokeWidth=1;fillColor=none;align=left;verticalAlign=middle;spacingTop=-1;spacingLeft=3;spacingRight=3;rotatable=0;labelPosition=right;points=[];portConstraint=eastwest;" vertex="1" parent="9">
          <mxGeometry y="156" width="200" height="8" as="geometry"/>
        </mxCell>
        
        <!-- Student Class -->
        <mxCell id="16" value="Student" style="swimlane;fontStyle=1;align=center;verticalAlign=top;childLayout=stackLayout;horizontal=1;startSize=26;horizontalStack=0;resizeParent=1;resizeParentMax=0;resizeLast=0;collapsible=1;marginBottom=0;" vertex="1" parent="1">
          <mxGeometry x="940" y="300" width="200" height="164" as="geometry"/>
        </mxCell>
        <mxCell id="17" value="- lastName: String" style="text;strokeColor=none;fillColor=none;align=left;verticalAlign=top;spacingLeft=4;spacingRight=4;overflow=hidden;rotatable=0;points=[[0,0.5],[1,0.5]];portConstraint=eastwest;" vertex="1" parent="16">
          <mxGeometry y="26" width="200" height="26" as="geometry"/>
        </mxCell>
        <mxCell id="18" value="- firstName: String" style="text;strokeColor=none;fillColor=none;align=left;verticalAlign=top;spacingLeft=4;spacingRight=4;overflow=hidden;rotatable=0;points=[[0,0.5],[1,0.5]];portConstraint=eastwest;" vertex="1" parent="16">
          <mxGeometry y="52" width="200" height="26" as="geometry"/>
        </mxCell>
        <mxCell id="19" value="- phoneNumber: String" style="text;strokeColor=none;fillColor=none;align=left;verticalAlign=top;spacingLeft=4;spacingRight=4;overflow=hidden;rotatable=0;points=[[0,0.5],[1,0.5]];portConstraint=eastwest;" vertex="1" parent="16">
          <mxGeometry y="78" width="200" height="26" as="geometry"/>
        </mxCell>
        <mxCell id="20" value="- email: String" style="text;strokeColor=none;fillColor=none;align=left;verticalAlign=top;spacingLeft=4;spacingRight=4;overflow=hidden;rotatable=0;points=[[0,0.5],[1,0.5]];portConstraint=eastwest;" vertex="1" parent="16">
          <mxGeometry y="104" width="200" height="26" as="geometry"/>
        </mxCell>
        <mxCell id="21" value="- entryYear: int" style="text;strokeColor=none;fillColor=none;align=left;verticalAlign=top;spacingLeft=4;spacingRight=4;overflow=hidden;rotatable=0;points=[[0,0.5],[1,0.5]];portConstraint=eastwest;" vertex="1" parent="16">
          <mxGeometry y="130" width="200" height="26" as="geometry"/>
        </mxCell>
        <mxCell id="22" value="" style="line;strokeWidth=1;fillColor=none;align=left;verticalAlign=middle;spacingTop=-1;spacingLeft=3;spacingRight=3;rotatable=0;labelPosition=right;points=[];portConstraint=eastwest;" vertex="1" parent="16">
          <mxGeometry y="156" width="200" height="8" as="geometry"/>
        </mxCell>
        
        <!-- Subject Class -->
        <mxCell id="23" value="Subject" style="swimlane;fontStyle=1;align=center;verticalAlign=top;childLayout=stackLayout;horizontal=1;startSize=26;horizontalStack=0;resizeParent=1;resizeParentMax=0;resizeLast=0;collapsible=1;marginBottom=0;" vertex="1" parent="1">
          <mxGeometry x="640" y="300" width="200" height="60" as="geometry"/>
        </mxCell>
        <mxCell id="24" value="" style="line;strokeWidth=1;fillColor=none;align=left;verticalAlign=middle;spacingTop=-1;spacingLeft=3;spacingRight=3;rotatable=0;labelPosition=right;points=[];portConstraint=eastwest;" vertex="1" parent="23">
          <mxGeometry y="26" width="200" height="8" as="geometry"/>
        </mxCell>
        <mxCell id="25" value="" style="text;strokeColor=none;fillColor=none;align=left;verticalAlign=top;spacingLeft=4;spacingRight=4;overflow=hidden;rotatable=0;points=[[0,0.5],[1,0.5]];portConstraint=eastwest;" vertex="1" parent="23">
          <mxGeometry y="34" width="200" height="26" as="geometry"/>
        </mxCell>
        
        <!-- Classroom Class -->
        <mxCell id="26" value="Classroom" style="swimlane;fontStyle=1;align=center;verticalAlign=top;childLayout=stackLayout;horizontal=1;startSize=26;horizontalStack=0;resizeParent=1;resizeParentMax=0;resizeLast=0;collapsible=1;marginBottom=0;" vertex="1" parent="1">
          <mxGeometry x="340" y="300" width="200" height="86" as="geometry"/>
        </mxCell>
        <mxCell id="27" value="- numberOfSeats: int" style="text;strokeColor=none;fillColor=none;align=left;verticalAlign=top;spacingLeft=4;spacingRight=4;overflow=hidden;rotatable=0;points=[[0,0.5],[1,0.5]];portConstraint=eastwest;" vertex="1" parent="26">
          <mxGeometry y="26" width="200" height="26" as="geometry"/>
        </mxCell>
        <mxCell id="28" value="" style="line;strokeWidth=1;fillColor=none;align=left;verticalAlign=middle;spacingTop=-1;spacingLeft=3;spacingRight=3;rotatable=0;labelPosition=right;points=[];portConstraint=eastwest;" vertex="1" parent="26">
          <mxGeometry y="52" width="200" height="8" as="geometry"/>
        </mxCell>
        <mxCell id="29" value="" style="text;strokeColor=none;fillColor=none;align=left;verticalAlign=top;spacingLeft=4;spacingRight=4;overflow=hidden;rotatable=0;points=[[0,0.5],[1,0.5]];portConstraint=eastwest;" vertex="1" parent="26">
          <mxGeometry y="60" width="200" height="26" as="geometry"/>
        </mxCell>
        
        <!-- Enrollment Association Class -->
        <mxCell id="30" value="Enrollment" style="swimlane;fontStyle=1;align=center;verticalAlign=top;childLayout=stackLayout;horizontal=1;startSize=26;horizontalStack=0;resizeParent=1;resizeParentMax=0;resizeLast=0;collapsible=1;marginBottom=0;" vertex="1" parent="1">
          <mxGeometry x="940" y="540" width="200" height="86" as="geometry"/>
        </mxCell>
        <mxCell id="31" value="- grade: double" style="text;strokeColor=none;fillColor=none;align=left;verticalAlign=top;spacingLeft=4;spacingRight=4;overflow=hidden;rotatable=0;points=[[0,0.5],[1,0.5]];portConstraint=eastwest;" vertex="1" parent="30">
          <mxGeometry y="26" width="200" height="26" as="geometry"/>
        </mxCell>
        <mxCell id="32" value="" style="line;strokeWidth=1;fillColor=none;align=left;verticalAlign=middle;spacingTop=-1;spacingLeft=3;spacingRight=3;rotatable=0;labelPosition=right;points=[];portConstraint=eastwest;" vertex="1" parent="30">
          <mxGeometry y="52" width="200" height="8" as="geometry"/>
        </mxCell>
        <mxCell id="33" value="" style="text;strokeColor=none;fillColor=none;align=left;verticalAlign=top;spacingLeft=4;spacingRight=4;overflow=hidden;rotatable=0;points=[[0,0.5],[1,0.5]];portConstraint=eastwest;" vertex="1" parent="30">
          <mxGeometry y="60" width="200" height="26" as="geometry"/>
        </mxCell>
        
        <!-- Person Interface -->
        <mxCell id="34" value="&lt;&lt;interface&gt;&gt;&#10;Person" style="swimlane;fontStyle=1;align=center;verticalAlign=top;childLayout=stackLayout;horizontal=1;startSize=40;horizontalStack=0;resizeParent=1;resizeParentMax=0;resizeLast=0;collapsible=1;marginBottom=0;" vertex="1" parent="1">
          <mxGeometry x="940" y="40" width="200" height="86" as="geometry"/>
        </mxCell>
        <mxCell id="35" value="" style="line;strokeWidth=1;fillColor=none;align=left;verticalAlign=middle;spacingTop=-1;spacingLeft=3;spacingRight=3;rotatable=0;labelPosition=right;points=[];portConstraint=eastwest;" vertex="1" parent="34">
          <mxGeometry y="40" width="200" height="8" as="geometry"/>
        </mxCell>
        <mxCell id="36" value="+ printPersonalRecord(): void" style="text;strokeColor=none;fillColor=none;align=left;verticalAlign=top;spacingLeft=4;spacingRight=4;overflow=hidden;rotatable=0;points=[[0,0.5],[1,0.5]];portConstraint=eastwest;" vertex="1" parent="34">
          <mxGeometry y="48" width="200" height="26" as="geometry"/>
        </mxCell>
        <mxCell id="37" value="" style="line;strokeWidth=1;fillColor=none;align=left;verticalAlign=middle;spacingTop=-1;spacingLeft=3;spacingRight=3;rotatable=0;labelPosition=right;points=[];portConstraint=eastwest;" vertex="1" parent="34">
          <mxGeometry y="74" width="200" height="12" as="geometry"/>
        </mxCell>
        
        <!-- College to Department Composition -->
        <mxCell id="38" value="" style="endArrow=diamondThin;endFill=1;endSize=24;html=1;exitX=1;exitY=0.5;exitDx=0;exitDy=0;entryX=0;entryY=0.5;entryDx=0;entryDy=0;" edge="1" parent="1" source="2" target="6">
          <mxGeometry width="160" relative="1" as="geometry">
            <mxPoint x="240" y="83" as="sourcePoint"/>
            <mxPoint x="340" y="70" as="targetPoint"/>
          </mxGeometry>
        </mxCell>
        <mxCell id="39" value="1" style="edgeLabel;resizable=0;html=1;align=left;verticalAlign=bottom;" connectable="0" vertex="1" parent="38">
          <mxGeometry x="-1" relative="1" as="geometry">
            <mxPoint x="5" as="offset"/>
          </mxGeometry>
        </mxCell>
        <mxCell id="40" value="*" style="edgeLabel;resizable=0;html=1;align=right;verticalAlign=bottom;" connectable="0" vertex="1" parent="38">
          <mxGeometry x="1" relative="1" as="geometry">
            <mxPoint x="-5" as="offset"/>
          </mxGeometry>
        </mxCell>
        
        <!-- Department to Teacher Association -->
        <mxCell id="41" value="" style="endArrow=none;html=1;exitX=1;exitY=0.5;exitDx=0;exitDy=0;entryX=0;entryY=0.5;entryDx=0;entryDy=0;" edge="1" parent="1" source="6" target="9">
          <mxGeometry width="160" relative="1" as="geometry">
            <mxPoint x="540" y="70" as="sourcePoint"/>
            <mxPoint x="640" y="122" as="targetPoint"/>
          </mxGeometry>
        </mxCell>
        <mxCell id="42" value="1" style="edgeLabel;resizable=0;html=1;align=left;verticalAlign=bottom;" connectable="0" vertex="1" parent="41">
          <mxGeometry x="-1" relative="1" as="geometry">
            <mxPoint x="5" as="offset"/>
          </mxGeometry>
        </mxCell>
        <mxCell id="43" value="*" style="edgeLabel;resizable=0;html=1;align=right;verticalAlign=bottom;" connectable="0" vertex="1" parent="41">
          <mxGeometry x="1" relative="1" as="geometry">
            <mxPoint x="-5" as="offset"/>
          </mxGeometry>
        </mxCell>
        
        <!-- Department to Teacher (head) Association -->
        <mxCell id="44" value="" style="endArrow=none;html=1;exitX=0.5;exitY=1;exitDx=0;exitDy=0;entryX=0.5;entryY=1;entryDx=0;entryDy=0;" edge="1" parent="1" source="6" target="9">
          <mxGeometry width="160" relative="1" as="geometry">
            <mxPoint x="440" y="120" as="sourcePoint"/>
            <mxPoint x="740" y="220" as="targetPoint"/>
            <Array as="points">
              <mxPoint x="440" y="240"/>
              <mxPoint x="740" y="240"/>
            </Array>
          </mxGeometry>
        </mxCell>
        <mxCell id="45" value="1" style="edgeLabel;resizable=0;html=1;align=left;verticalAlign=top;" connectable="0" vertex="1" parent="44">
          <mxGeometry x="-1" relative="1" as="geometry">
            <mxPoint y="5" as="offset"/>
          </mxGeometry>
        </mxCell>
        <mxCell id="46" value="1" style="edgeLabel;resizable=0;html=1;align=right;verticalAlign=bottom;" connectable="0" vertex="1" parent="44">
          <mxGeometry x="1" relative="1" as="geometry">
            <mxPoint y="-5" as="offset"/>
          </mxGeometry>
        </mxCell>
        <mxCell id="47" value="head" style="edgeLabel;html=1;align=center;verticalAlign=middle;resizable=0;points=[];" vertex="1" connectable="0" parent="44">
          <mxGeometry x="0.5" y="1" relative="1" as="geometry">
            <mxPoint x="30" y="-9" as="offset"/>
          </mxGeometry>
        </mxCell>
        
        <!-- Teacher to Subject Association -->
        <mxCell id="48" value="" style="endArrow=none;html=1;exitX=0.5;exitY=1;exitDx=0;exitDy=0;entryX=0.5;entryY=0;entryDx=0;entryDy=0;" edge="1" parent="1" source="9" target="23">
          <mxGeometry width="160" relative="1" as="geometry">
            <mxPoint x="740" y="220" as="sourcePoint"/>
            <mxPoint x="740" y="290" as="targetPoint"/>
          </mxGeometry>
        </mxCell>
        <mxCell id="49" value="*" style="edgeLabel;resizable=0;html=1;align=left;verticalAlign=top;" connectable="0" vertex="1" parent="48">
          <mxGeometry x="-1" relative="1" as="geometry">
            <mxPoint y="5" as="offset"/>
          </mxGeometry>
        </mxCell>
        <mxCell id="50" value="1" style="edgeLabel;resizable=0;html=1;align=right;verticalAlign=bottom;" connectable="0" vertex="1" parent="48">
          <mxGeometry x="1" relative="1" as="geometry">
            <mxPoint y="-5" as="offset"/>
          </mxGeometry>
        </mxCell>
        <mxCell id="51" value="teaches" style="edgeLabel;html=1;align=center;verticalAlign=middle;resizable=0;points=[];" vertex="1" connectable="0" parent="48">
          <mxGeometry x="-0.1" y="1" relative="1" as="geometry">
            <mxPoint x="-15" y="-5" as="offset"/>
          </mxGeometry>
        </mxCell>
        
        <!-- Subject to Classroom Association -->
        <mxCell id="52" value="" style="endArrow=none;html=1;exitX=0;exitY=0.5;exitDx=0;exitDy=0;entryX=1;entryY=0.5;entryDx=0;entryDy=0;" edge="1" parent="1" source="23" target="26">
          <mxGeometry width="160" relative="1" as="geometry">
            <mxPoint x="630" y="330" as="sourcePoint"/>
            <mxPoint x="550" y="343" as="targetPoint"/>
          </mxGeometry>
        </mxCell>
        <mxCell id="53" value="*" style="edgeLabel;resizable=0;html=1;align=left;verticalAlign=bottom;" connectable="0" vertex="1" parent="52">
          <mxGeometry x="-1" relative="1" as="geometry">
            <mxPoint x="5" as="offset"/>
          </mxGeometry>
        </mxCell>
        <mxCell id="54" value="1" style="edgeLabel;resizable=0;html=1;align=right;verticalAlign=bottom;" connectable="0" vertex="1" parent="52">
          <mxGeometry x="1" relative="1" as="geometry">
            <mxPoint x="-5" as="offset"/>
          </mxGeometry>
        </mxCell>
        <mxCell id="55" value="takes place in" style="edgeLabel;html=1;align=center;verticalAlign=middle;resizable=0;points=[];" vertex="1" connectable="0" parent="52">
          <mxGeometry x="-0.1" y="1" relative="1" as="geometry">
            <mxPoint y="-9" as="offset"/>
          </mxGeometry>
        </mxCell>
        
        <!-- Student to Enrollment Association -->
        <mxCell id="56" value="" style="endArrow=none;html=1;exitX=0.5;exitY=1;exitDx=0;exitDy=0;entryX=0.5;entryY=0;entryDx=0;entryDy=0;" edge="1" parent="1" source="16" target="30">
          <mxGeometry width="160" relative="1" as="geometry">
            <mxPoint x="1040" y="480" as="sourcePoint"/>
            <mxPoint x="1040" y="530" as="targetPoint"/>
          </mxGeometry>
        </mxCell>
        <mxCell id="57" value="1" style="edgeLabel;resizable=0;html=1;align=left;verticalAlign=top;" connectable="0" vertex="1" parent="56">
          <mxGeometry x="-1" relative="1" as="geometry">
            <mxPoint y="5" as="offset"/>
          </mxGeometry>
        </mxCell>
        <mxCell id="58" value="*" style="edgeLabel;resizable=0;html=1;align=right;verticalAlign=bottom;" connectable="0" vertex="1" parent="56">
          <mxGeometry x="1" relative="1" as="geometry">
            <mxPoint y="-5" as="offset"/>
          </mxGeometry>
        </mxCell>
        
        <!-- Subject to Enrollment Association -->
        <mxCell id="59" value="" style="endArrow=none;html=1;exitX=1;exitY=0.5;exitDx=0;exitDy=0;entryX=0;entryY=0.5;entryDx=0;entryDy=0;" edge="1" parent="1" source="23" target="30">
          <mxGeometry width="160" relative="1" as="geometry">
            <mxPoint x="840" y="330" as="sourcePoint"/>
            <mxPoint x="940" y="583" as="targetPoint"/>
            <Array as="points">
              <mxPoint x="880" y="330"/>
              <mxPoint x="880" y="583"/>
            </Array>
          </mxGeometry>
        </mxCell>
        <mxCell id="60" value="1" style="edgeLabel;resizable=0;html=1;align=left;verticalAlign=top;" connectable="0" vertex="1" parent="59">
          <mxGeometry x="-1" relative="1" as="geometry">
            <mxPoint x="5" as="offset"/>
          </mxGeometry>
        </mxCell>
        <mxCell id="61" value="*" style="edgeLabel;resizable=0;html=1;align=right;verticalAlign=bottom;" connectable="0" vertex="1" parent="59">
          <mxGeometry x="1" relative="1" as="geometry">
            <mxPoint x="-5" as="offset"/>
          </mxGeometry>
        </mxCell>
        
        <!-- Teacher realizes Person -->
        <mxCell id="62" value="" style="endArrow=block;dashed=1;endFill=0;endSize=12;html=1;exitX=0.5;exitY=0;exitDx=0;exitDy=0;entryX=0.25;entryY=1;entryDx=0;entryDy=0;" edge="1" parent="1" source="9" target="34">
          <mxGeometry width="160" relative="1" as="geometry">
            <mxPoint x="740" y="30" as="sourcePoint"/>
            <mxPoint x="990" y="140" as="targetPoint"/>
          </mxGeometry>
        </mxCell>
        
        <!-- Student realizes Person -->
        <mxCell id="63" value="" style="endArrow=block;dashed=1;endFill=0;endSize=12;html=1;exitX=0.5;exitY=0;exitDx=0;exitDy=0;entryX=0.75;entryY=1;entryDx=0;entryDy=0;" edge="1" parent="1" source="16" target="34">
          <mxGeometry width="160" relative="1" as="geometry">
            <mxPoint x="1040" y="290" as="sourcePoint"/>
            <mxPoint x="1090" y="140" as="targetPoint"/>
          </mxGeometry>
        </mxCell>
        
      </root>
    </mxGraphModel>
  </diagram>
</mxfile>